<?xml version="1.0" encoding="UTF-8" standalone="no"?>
<svg xmlns="http://www.w3.org/2000/svg" width="200" height="200" viewBox="0 0 200 200">
  <path d="M 28.00,132.00 28.00,135.00 29.00,136.00 53.00,136.00 55.00,134.00 55.00,132.00 54.00,131.00 54.00,130.00 30.00,130.00 Z M 46.00,8.00 43.00,18.00 57.00,94.00 62.00,100.00 70.00,102.00 66.00,115.00 45.00,115.00 42.00,118.00 44.00,122.00 65.00,123.00 58.00,154.00 45.00,167.00 46.00,178.00 53.00,184.00 62.00,184.00 72.00,176.00 74.00,166.00 68.00,153.00 73.00,138.00 151.00,137.00 156.00,154.00 146.00,163.00 144.00,174.00 146.00,179.00 153.00,184.00 165.00,182.00 172.00,174.00 173.00,165.00 165.00,153.00 154.00,104.00 155.00,101.00 160.00,101.00 165.00,97.00 165.00,86.00 160.00,82.00 75.00,82.00 60.00,12.00 55.00,7.00 Z M 157.00,164.00 161.00,164.00 164.00,167.00 164.00,171.00 163.00,172.00 163.00,173.00 161.00,175.00 160.00,175.00 159.00,176.00 157.00,176.00 156.00,175.00 155.00,175.00 153.00,173.00 153.00,168.00 Z M 62.00,164.00 65.00,167.00 65.00,171.00 64.00,172.00 64.00,173.00 62.00,175.00 61.00,175.00 60.00,176.00 57.00,176.00 54.00,173.00 54.00,168.00 57.00,165.00 58.00,165.00 59.00,164.00 Z M 74.00,128.00 75.00,127.00 75.00,124.00 76.00,123.00 76.00,121.00 77.00,120.00 77.00,117.00 78.00,116.00 78.00,113.00 79.00,112.00 79.00,109.00 80.00,108.00 80.00,105.00 81.00,104.00 81.00,102.00 82.00,101.00 142.00,101.00 144.00,103.00 144.00,107.00 145.00,108.00 145.00,111.00 146.00,112.00 146.00,115.00 147.00,116.00 147.00,119.00 148.00,120.00 148.00,124.00 149.00,125.00 149.00,129.00 148.00,130.00 75.00,130.00 74.00,129.00 Z" fill="#000000" fill-rule="evenodd" stroke="none"/>
</svg>
